<svg preserveAspectRatio="xMidYMid meet" data-bbox="0.001 -0.003 235.624 139.287" viewBox="0.001 -0.003 235.624 139.287" xmlns="http://www.w3.org/2000/svg" data-type="color" role="img" aria-label="Logo warszawskiej szkoły reklamy modernistyczne">
    <g>
    <path d="M59.34 138.12c13.86-32.22 28.2-63.79 42.6-95.82H62.93c4.11 9.09 8.53 18.04 12.85 27.03.83 1.7.82 3.1.02 4.83-7.36 15.87-14.39 31.92-21.8 47.75-.7.97-1.29.82-1.76-.26C35.17 82.14 18.16 42.6.79 3.2-.54.16-.42-.03 2.97 0c56.35.49 112.71 1.15 169.06 1.49 3.06.02 3.23.31 2 3.04-19.74 44.09-39.92 87.97-60.49 131.67-.87 1.87-1.88 2.64-4.03 2.6-16.79-.39-33.36-.1-50.17-.69ZM28.74 62.4c.18-.01.37-.02.55-.04 3.74-15.21 7.49-30.41 11.27-45.78-12.62-4.64-25.03-9.2-37.44-13.76-.12.17-.23.35-.35.52 8.66 19.69 17.31 39.38 25.97 59.06Zm82.84 73.73 21.07-44.29c-.16-.1-.32-.2-.48-.29-13.73 5.41-27.47 10.82-41.49 16.35 7.05 9.53 13.83 18.68 20.91 28.23Zm-6.79-94.4c7.77 9.07 15.29 17.86 23.11 27.01 4.7-15.31 9.22-30.02 13.9-45.28-12.65 6.24-24.68 12.18-37.01 18.27ZM53.5 117.34c.21.02.43.05.64.07 6.77-14.91 13.54-29.83 20.44-45.02-9.27-1.78-18.16-3.48-27.54-5.28 2.19 17.03 4.32 33.63 6.46 50.23Zm50.06-74.25L86.18 81.72c13.79-3.95 26.95-7.72 40.51-11.6l-23.13-27.03Zm6.09 93.51c-6.85-9.26-13.57-18.34-20.5-27.71-8.89 9.25-17.49 18.19-26.08 27.14.1.19.21.38.31.57h46.27Zm-6-96.34c11.91-5.89 23.64-11.68 35.37-17.48-.04-.18-.09-.35-.13-.53-17.11-1.55-34.23-3.11-51.94-4.71 5.81 7.91 11.22 15.28 16.69 22.72Zm46.15 11.67.66.12c7.03-15.48 14.05-30.96 21.3-46.92-8.94 5.07-17.26 10.86-26.05 16.16-1.06.66-1.38 1.31-1.14 2.54 1.84 9.35 3.51 18.73 5.22 28.11Zm-25.47 21.19c-.9 0-1.21-.07-1.48 0-11.84 3.38-23.67 6.81-35.53 10.13-1.64.46-1.67 1.32-1.41 2.63 1.42 6.61 2.25 13.09 4.02 19.66 11.5-10.85 22.73-21.43 34.4-32.43Zm-4.28-69.84c7.7 5.73 15.05 11.24 22.48 16.63.47.34 1.69.1 2.31-.28 8.34-5.29 16.9-10.26 25.04-15.84-.05-.17-.11-.34-.16-.52h-49.66ZM61.26 39.63c7.15-7.39 14.13-14.61 21.59-22.33H43.82c5.87 7.52 11.59 14.84 17.44 22.33Zm40.16.66c-5.58-7.58-10.98-14.92-16.53-22.46L63.74 39.71c.12.19.25.38.37.58h37.3Zm37.59-19.88.15-.59c-7.12-5.32-14.23-10.67-21.41-15.9-.6-.43-1.87-.42-2.61-.1-8.55 3.8-17.12 7.57-25.56 11.61.03.17.07.34.1.5 16.44 1.49 32.88 2.99 49.32 4.48Zm-11.13 51.88c-11.35 10.69-22.42 21.13-33.5 31.57.12.15.24.31.35.46 12.89-5.08 25.79-10.15 38.82-15.28-1.91-5.64-3.72-10.99-5.68-16.75ZM7.54 2.24c10.78 4.41 21.89 8.13 32.82 12.21.73.26 1.9-.05 2.61-.5 5.51-3.71 11.26-7.14 16.51-11.18-.06-.17-.12-.35-.18-.52H7.54ZM30.73 66.9c6.74 15.53 13.3 30.63 19.85 45.72.07-3.21-.3-6.24-.69-9.27-1.48-11.63-2.95-23.27-4.51-34.89-.08-.57-.9-1.47-1.4-1.49-4.25-.12-8.51-.07-13.25-.07ZM43.5 19.87c-.19.07-.38.14-.57.22 1.23 14.07 2.45 28.14 3.7 42.51.51-.42.73-.53.84-.7 4.01-6.57 8.03-13.13 11.97-19.74.28-.47.19-1.5-.15-1.95-5.22-6.81-10.51-13.57-15.79-20.33Zm4.05 45.47c8.98 1.72 17.64 3.37 26.73 5.11-4.48-9.34-8.74-18.21-13.2-27.5-4.67 7.73-9.03 14.94-13.53 22.39Zm-6.17-42.29c-.18-.02-.37-.05-.55-.07-3.42 13.93-6.84 27.86-10.3 41.93h14.48c-1.22-14.07-2.43-27.97-3.63-41.86Zm88.78 44.44c.17.11.35.22.52.34 5.68-3.86 11.38-7.68 16.99-11.63.51-.36.72-1.56.6-2.3-1.54-9.18-3.29-18.32-5.05-27.46l-.44.03c-4.21 13.67-8.42 27.34-12.63 41.02Zm-66.29 64.54c.77-.4.94-.43 1.03-.53 7.47-7.75 14.96-15.48 22.36-23.29.54-.57.79-1.78.64-2.6-1.19-6.16-2.1-12.41-3.68-18.48l-.51-.03c-6.53 14.79-13.07 29.58-19.85 44.93Zm47.3-128.48c-.03-.23-.06-.47-.1-.7H66.98c4.55 3.58 9.38 6.09 13.82 9.69 3 2.41 5.52 2.59 8.99.82 6.98-3.56 14.24-6.57 21.38-9.81ZM81.61 15.23c-5.84-4-11.29-7.68-16.66-11.47-1.25-.88-2.1-.91-3.36-.04-4.92 3.4-9.93 6.68-14.9 10.02-.45.3-.85.69-1.82 1.49H81.6Zm65.59 44.04c-.61.06-.7.04-.75.08-3.9 2.63-7.79 5.29-11.7 7.91-5.45 3.65-5.48 3.65-3.41 9.85 1.05 3.15 2.22 6.25 3.52 9.92 4.25-9.57 8.24-18.55 12.34-27.76Z" fill="#000000" data-color="1"></path>
        <path d="M59.34 138.12c13.86-32.22 28.2-63.79 42.6-95.82H62.93c4.11 9.09 8.53 18.04 12.85 27.03.83 1.7.82 3.1.02 4.83-7.36 15.87-14.39 31.92-21.8 47.75-.7.97-1.29.82-1.76-.26C35.17 82.14 18.16 42.6.79 3.2-.54.16-.42-.03 2.97 0c56.35.49 112.71 1.15 169.06 1.49 3.06.02 3.23.31 2 3.04-19.74 44.09-39.92 87.97-60.49 131.67-.87 1.87-1.88 2.64-4.03 2.6-16.79-.39-33.36-.1-50.17-.69ZM28.74 62.4c.18-.01.37-.02.55-.04 3.74-15.21 7.49-30.41 11.27-45.78-12.62-4.64-25.03-9.2-37.44-13.76-.12.17-.23.35-.35.52 8.66 19.69 17.31 39.38 25.97 59.06Zm82.84 73.73 21.07-44.29c-.16-.1-.32-.2-.48-.29-13.73 5.41-27.47 10.82-41.49 16.35 7.05 9.53 13.83 18.68 20.91 28.23Zm-6.79-94.4c7.77 9.07 15.29 17.86 23.11 27.01 4.7-15.31 9.22-30.02 13.9-45.28-12.65 6.24-24.68 12.18-37.01 18.27ZM53.5 117.34c.21.02.43.05.64.07 6.77-14.91 13.54-29.83 20.44-45.02-9.27-1.78-18.16-3.48-27.54-5.28 2.19 17.03 4.32 33.63 6.46 50.23Zm50.06-74.25L86.18 81.72c13.79-3.95 26.95-7.72 40.51-11.6l-23.13-27.03Zm6.09 93.51c-6.85-9.26-13.57-18.34-20.5-27.71-8.89 9.25-17.49 18.19-26.08 27.14.1.19.21.38.31.57h46.27Zm-6-96.34c11.91-5.89 23.64-11.68 35.37-17.48-.04-.18-.09-.35-.13-.53-17.11-1.55-34.23-3.11-51.94-4.71 5.81 7.91 11.22 15.28 16.69 22.72Zm46.15 11.67.66.12c7.03-15.48 14.05-30.96 21.3-46.92-8.94 5.07-17.26 10.86-26.05 16.16-1.06.66-1.38 1.31-1.14 2.54 1.84 9.35 3.51 18.73 5.22 28.11Zm-25.47 21.19c-.9 0-1.21-.07-1.48 0-11.84 3.38-23.67 6.81-35.53 10.13-1.64.46-1.67 1.32-1.41 2.63 1.42 6.61 2.25 13.09 4.02 19.66 11.5-10.85 22.73-21.43 34.4-32.43Zm-4.28-69.84c7.7 5.73 15.05 11.24 22.48 16.63.47.34 1.69.1 2.31-.28 8.34-5.29 16.9-10.26 25.04-15.84-.05-.17-.11-.34-.16-.52h-49.66ZM61.26 39.63c7.15-7.39 14.13-14.61 21.59-22.33H43.82c5.87 7.52 11.59 14.84 17.44 22.33Zm40.16.66c-5.58-7.58-10.98-14.92-16.53-22.46L63.74 39.71c.12.19.25.38.37.58h37.3Zm37.59-19.88.15-.59c-7.12-5.32-14.23-10.67-21.41-15.9-.6-.43-1.87-.42-2.61-.1-8.55 3.8-17.12 7.57-25.56 11.61.03.17.07.34.1.5 16.44 1.49 32.88 2.99 49.32 4.48Zm-11.13 51.88c-11.35 10.69-22.42 21.13-33.5 31.57.12.15.24.31.35.46 12.89-5.08 25.79-10.15 38.82-15.28-1.91-5.64-3.72-10.99-5.68-16.75ZM7.54 2.24c10.78 4.41 21.89 8.13 32.82 12.21.73.26 1.9-.05 2.61-.5 5.51-3.71 11.26-7.14 16.51-11.18-.06-.17-.12-.35-.18-.52H7.54ZM30.73 66.9c6.74 15.53 13.3 30.63 19.85 45.72.07-3.21-.3-6.24-.69-9.27-1.48-11.63-2.95-23.27-4.51-34.89-.08-.57-.9-1.47-1.4-1.49-4.25-.12-8.51-.07-13.25-.07ZM43.5 19.87c-.19.07-.38.14-.57.22 1.23 14.07 2.45 28.14 3.7 42.51.51-.42.73-.53.84-.7 4.01-6.57 8.03-13.13 11.97-19.74.28-.47.19-1.5-.15-1.95-5.22-6.81-10.51-13.57-15.79-20.33Zm4.05 45.47c8.98 1.72 17.64 3.37 26.73 5.11-4.48-9.34-8.74-18.21-13.2-27.5-4.67 7.73-9.03 14.94-13.53 22.39Zm-6.17-42.29c-.18-.02-.37-.05-.55-.07-3.42 13.93-6.84 27.86-10.3 41.93h14.48c-1.22-14.07-2.43-27.97-3.63-41.86Zm88.78 44.44c.17.11.35.22.52.34 5.68-3.86 11.38-7.68 16.99-11.63.51-.36.72-1.56.6-2.3-1.54-9.18-3.29-18.32-5.05-27.46l-.44.03c-4.21 13.67-8.42 27.34-12.63 41.02Zm-66.29 64.54c.77-.4.94-.43 1.03-.53 7.47-7.75 14.96-15.48 22.36-23.29.54-.57.79-1.78.64-2.6-1.19-6.16-2.1-12.41-3.68-18.48l-.51-.03c-6.53 14.79-13.07 29.58-19.85 44.93Zm47.3-128.48c-.03-.23-.06-.47-.1-.7H66.98c4.55 3.58 9.38 6.09 13.82 9.69 3 2.41 5.52 2.59 8.99.82 6.98-3.56 14.24-6.57 21.38-9.81ZM81.61 15.23c-5.84-4-11.29-7.68-16.66-11.47-1.25-.88-2.1-.91-3.36-.04-4.92 3.4-9.93 6.68-14.9 10.02-.45.3-.85.69-1.82 1.49H81.6Zm65.59 44.04c-.61.06-.7.04-.75.08-3.9 2.63-7.79 5.29-11.7 7.91-5.45 3.65-5.48 3.65-3.41 9.85 1.05 3.15 2.22 6.25 3.52 9.92 4.25-9.57 8.24-18.55 12.34-27.76Z" fill="#000000" data-color="1"></path>
        <path d="M162.62 138.79c-12.4 0-24.79.02-37.19-.01-3.27 0-3.74-.69-2.4-3.74 2.33-5.3 4.82-10.52 7.24-15.78 4.34-9.44 8.8-18.82 12.97-28.33 5.34-12.16 10.27-24.5 15.72-36.6 4.78-10.62 9.89-21.1 15.15-31.49 3.53-6.98 9.63-11.37 16.33-15.2 8.01-4.58 16.46-5.86 25.49-5.25 5.69.38 11.43.19 17.13.43 2.77.12 3.09.83 1.94 3.41-3.82 8.53-7.77 17-11.51 25.57-5.61 12.85-10.95 25.82-16.67 38.63-6.27 14.03-12.84 27.92-19.25 41.89-3.65 7.96-7.32 15.91-10.81 23.94-.95 2.17-2.22 3.1-4.55 3.02-3.19-.12-6.39-.03-9.58-.03v-.45Zm38.13-63.82c.26-.03.52-.06.78-.1 2.03-12.21 4.07-24.42 6.16-36.94-.91.2-1.22.21-1.46.34-8.25 4.39-16.51 8.77-24.73 13.2-2.21 1.19-2.25 1.84-.45 3.67 5.77 5.88 11.54 11.76 17.32 17.62.76.77 1.59 1.47 2.38 2.2Zm-43.6-9.58c-.64.93-1.06 1.36-1.28 1.87-3.98 9.35-7.96 18.7-11.89 28.07-.23.55-.1 1.25-.13 1.88.63.03 1.31.23 1.89.07 8.59-2.35 17.17-4.72 25.74-7.15 2.28-.64 2.53-1.35 1.14-3.32-3.02-4.31-6.14-8.55-9.22-12.81-1.99-2.75-3.99-5.49-6.26-8.61Zm-7.69 50.86c.6.22.74.32.87.31 9.97-.8 19.95-1.57 29.91-2.43 2.26-.19 2.77-.96 2.07-3.11-1.76-5.43-3.61-10.83-5.51-16.22-.68-1.94-1.44-2.04-3.09-.54-6.75 6.13-13.49 12.28-20.23 18.42-1.25 1.14-2.52 2.24-4.02 3.57Zm19.15 20.32c.24-.4.48-.8.73-1.2-.71-.37-1.47-.66-2.13-1.11-6.27-4.21-12.53-8.43-18.77-12.68-2.35-1.59-3.08-1.62-5.29.25-3.18 2.67-6.34 5.36-9.47 8.09-2.02 1.77-3.97 3.63-5.95 5.44l.3 1.03c13.52.32 27.05.1 40.58.17ZM230.48 7.12c-.12-.17-.24-.33-.36-.5-.69.14-1.38.24-2.06.43-2.29.64-4.57 1.29-6.85 1.96-7.19 2.11-14.38 4.21-21.56 6.35-2.2.65-2.6 1.38-1.48 2.91 3.28 4.49 6.65 8.92 9.98 13.38.81 1.08 1.6 1.22 2.51.13 1.04-1.25 2.13-2.47 3.16-3.74 3.91-4.85 7.8-9.7 11.69-14.56 1.68-2.1 3.32-4.24 4.98-6.36Zm-51.54 49.24c-.23.1-.45.19-.68.29-.09.71-.25 1.41-.25 2.12-.02 8.61-.04 17.22-.01 25.83 0 2.74.69 3.11 3.3 1.92 5.33-2.43 10.65-4.9 15.99-7.33 2.52-1.15 2.62-1.59.66-3.56-5.39-5.41-10.8-10.81-16.19-16.22-.97-.98-1.88-2.03-2.81-3.04Zm1.58-7.94c.21.16.41.33.62.49 1.48-.78 2.95-1.57 4.43-2.35 6.36-3.36 12.73-6.69 19.06-10.11 2.43-1.31 2.56-1.97.96-4.15-2.94-4.01-5.93-7.98-8.97-11.91-1.56-2.02-2.03-1.98-3.19.36-3.7 7.52-7.34 15.06-10.95 22.62-.78 1.62-1.31 3.36-1.96 5.05Zm-30.85 70.76c.8.91 1.03 1.31 1.37 1.54 7.06 4.78 14.14 9.52 21.19 14.31 1.27.86 2.06.52 2.66-.72.93-1.94 1.83-3.89 2.71-5.84 1.4-3.11 2.83-6.2 4.16-9.34.77-1.81.29-2.5-1.63-2.57-.52-.02-1.04.05-1.55.09-6.57.56-13.15 1.11-19.72 1.68-2.85.25-5.69.53-9.19.85Zm24.39-33.53c.45-.28.9-.57 1.35-.85.05-.96.13-1.91.14-2.87.02-4.07.02-8.14.03-12.21.01-4.15.06-8.3.05-12.45 0-1.88-.94-2.37-2.6-1.54-4.18 2.07-8.36 4.17-12.56 6.21-1.6.78-1.79 1.64-.71 3.1 4.54 6.13 9.01 12.32 13.47 18.51.43.59.56 1.4.83 2.11Zm10.88 24.54c.31.02.61.03.92.05 4.44-9.5 8.89-19 13.33-28.5l-.67-.49c-5.85 2.69-11.71 5.35-17.53 8.09-2.38 1.12-2.73 2.07-1.89 4.65 1.19 3.67 2.4 7.33 3.68 10.97.63 1.78 1.43 3.49 2.16 5.24ZM170.9 93.3c-1.06 0-1.36-.06-1.62 0-8.35 2.33-16.69 4.69-25.04 7.02-1.67.47-2 1.61-1.59 3.1.72 2.64 1.51 5.26 2.21 7.91 1.19 4.54 1.41 4.64 4.97 1.4 5.65-5.13 11.25-10.31 16.86-15.48 1.26-1.16 2.49-2.35 4.21-3.97Zm20.52-73.87c-.97.07-1.29.01-1.53.12-4.6 2.21-9.22 4.36-13.73 6.74-.66.35-1.15 1.78-1.07 2.65.47 5.01 1.11 10.01 1.78 15 .1.72.66 1.38 1.01 2.06.53-.54 1.24-.99 1.56-1.63 3.35-6.84 6.65-13.72 9.95-20.59.62-1.3 1.22-2.61 2.04-4.36Zm-31.79 39.26c.17.14.35.28.52.42.48-.15.99-.24 1.44-.46 3.67-1.76 7.3-3.63 11.02-5.27 2.24-.99 2.83-2.48 2.52-4.78-.66-4.92-1.15-9.86-1.73-14.79-.1-.84-.35-1.66-.53-2.49l-.5-.04c-4.25 9.13-8.49 18.27-12.74 27.4Zm61.65-27.64c-.3-.23-.6-.46-.9-.68-2.3 1.28-4.53 2.69-6.91 3.79-2.12.97-3.18 2.44-3.54 4.7-1.01 6.29-2.15 12.57-3.2 18.86-.47 2.8-.86 5.6-1.29 8.4.2.05.4.11.6.16 5.08-11.74 10.17-23.48 15.25-35.23ZM127.36 131.2l.53.35c.26-.12.56-.19.76-.36 4.64-4.03 9.33-8.02 13.86-12.18.71-.65 1.15-2.15.97-3.12-.55-2.98-1.45-5.9-2.26-8.82-.22-.8-.66-1.54-.99-2.3h-.61c-4.09 8.81-8.17 17.62-12.26 26.44Zm71.35-118.12c8.46-2.44 16.77-4.83 25.07-7.22-.05-.24-.09-.48-.14-.72-5.68-.16-11.36-.35-17.05-.46-3.63-.07-7.69 4.07-7.89 8.4Zm28.99 1.36c-3.94 4.92-7.89 9.84-12.1 15.08 6.14-1.21 11.32-7.57 12.1-15.08Zm-29.92-6.26c-.22-.26-.43-.52-.65-.78-1.62.72-3.31 1.32-4.84 2.21-.5.29-.99 1.59-.76 1.92.68.96 1.74 2.37 3.02 1.14 1.31-1.25 2.17-2.98 3.22-4.49Zm-12.55 10.7c-5-.58-6.9.44-6.93 3.45 2.41-1.2 4.67-2.33 6.93-3.45Zm4.82-3.99c.08-.31.17-.62.25-.94-.95-.54-2.03-1.66-2.84-1.49-1.15.24-2.1 1.43-3.14 2.21.12.3.25.6.37.9l5.36-.69Z" fill="#ff0000" data-color="2"></path>
    </g>
</svg>